<svg id="e9Az0JIvoCh1" xmlns="http://www.w3.org/2000/svg" xmlns:xlink="http://www.w3.org/1999/xlink" viewBox="0 0 433.43 434.86" shape-rendering="geometricPrecision" text-rendering="geometricPrecision"><style><![CDATA[#e9Az0JIvoCh3_tr {animation: e9Az0JIvoCh3_tr__tr 1500ms linear infinite normal forwards}@keyframes e9Az0JIvoCh3_tr__tr { 0% {transform: translate(216.71524px,217.429932px) rotate(0deg)} 100% {transform: translate(216.71524px,217.429932px) rotate(360deg)}}]]></style><g><g id="e9Az0JIvoCh3_tr" transform="translate(216.71524,217.429932) rotate(0)"><g transform="translate(-216.71524,-217.429932)"><polygon points="369.21,64.43 328.21,214.43 370.21,371.43 215.22,330.43 63.22,371.43 104.22,217.43 63.22,63.43 216.22,106.43 369.21,64.43" fill="#ffea00"/><polygon points="433.43,215 299.12,293.37 219.16,434.86 137.22,297.05 0,219.87 137.11,138.65 215.69,0 294.8,137.84 433.43,215" fill="#ffc000"/></g></g><g><circle r="138" transform="translate(216.71 217.43)" fill="#ffea00"/><path d="M216.71,94.43c58.678708.024678,109.168986,41.495224,120.594204,99.050899s-19.396543,115.167249-73.616662,137.603161-116.738315,3.447768-149.32245-45.352494-26.159543-113.821788,15.344908-155.301566c23.027346-23.138902,54.355597-36.102317,87-36m0-15c-76.215295,0-138,61.784705-138,138s61.784705,138,138,138s138-61.784705,138-138-61.784705-138-138-138Z"/><ellipse rx="12.25" ry="26.35" transform="translate(172.46 163.28)"/><ellipse rx="12.25" ry="26.35" transform="translate(263.41 163.23)"/><path d="M156.21,126.93c0,11.61,6,20,11,23" fill="none" stroke="#000" stroke-width="5" stroke-linecap="round" stroke-linejoin="round"/><path d="M247.48,126.82c0,11.61,6,20,11,23" fill="none" stroke="#000" stroke-width="5" stroke-linecap="round" stroke-linejoin="round"/><ellipse rx="8.5" ry="7" transform="translate(217.21 203.43)"/><path d="M170.45,225.43c2.33,10.11,22.15,18,46.26,18s43.94-7.89,46.27-18Z" fill="#fff"/></g></g></svg>